/* XPM */
static char *e8dfd7eecae24c04fcd65b5ee70b5df8Q8Wj6qdOo7k9nxfp[] = {
/* columns rows colors chars-per-pixel */
"64 64 256 2 ",
"   c black",
".  c #0000A8",
"X  c #00A800",
"o  c #00A8A8",
"O  c #A80000",
"+  c #A800A8",
"@  c #A85400",
"#  c gray66",
"$  c gray33",
"%  c #5454FC",
"&  c #54FC54",
"*  c #54FCFC",
"=  c #FC5454",
"-  c #FC54FC",
";  c #FCFC54",
":  c gray99",
">  c #ECECEC",
",  c gainsboro",
"<  c #D0D0D0",
"1  c #C0C0C0",
"2  c #B4B4B4",
"3  c gray66",
"4  c #989898",
"5  c gray55",
"6  c #7C7C7C",
"7  c gray44",
"8  c #646464",
"9  c gray33",
"0  c #484848",
"q  c gray22",
"w  c #2C2C2C",
"e  c #202020",
"r  c #FC0000",
"t  c #EC0000",
"y  c #E00000",
"u  c #D40000",
"i  c #C80000",
"p  c #BC0000",
"a  c #B00000",
"s  c #A40000",
"d  c #980000",
"f  c #880000",
"g  c #7C0000",
"h  c #700000",
"j  c #640000",
"k  c #580000",
"l  c #4C0000",
"z  c #400000",
"x  c #FCD8D8",
"c  c #FCB8B8",
"v  c #FC9C9C",
"b  c #FC7C7C",
"n  c #FC5C5C",
"m  c #FC4040",
"M  c #FC2020",
"N  c #FC0000",
"B  c #FCA85C",
"V  c #FC9840",
"C  c #FC8820",
"Z  c #FC7800",
"A  c #E46C00",
"S  c #CC6000",
"D  c #B45400",
"F  c #9C4C00",
"G  c #FCFCD8",
"H  c #FCFCB8",
"J  c #FCFC9C",
"K  c #FCFC7C",
"L  c #FCF85C",
"P  c #FCF440",
"I  c #FCF420",
"U  c #FCF400",
"Y  c #E4D800",
"T  c #CCC400",
"R  c #B4AC00",
"E  c #9C9C00",
"W  c #848400",
"Q  c #706C00",
"!  c #585400",
"~  c #404000",
"^  c #D0FC5C",
"/  c #C4FC40",
"(  c #B4FC20",
")  c #A0FC00",
"_  c #90E400",
"`  c #80CC00",
"'  c #74B400",
"]  c #609C00",
"[  c #D8FCD8",
"{  c #BCFCB8",
"}  c #9CFC9C",
"|  c #80FC7C",
" . c #60FC5C",
".. c #40FC40",
"X. c #20FC20",
"o. c #00FC00",
"O. c #00FC00",
"+. c #00EC00",
"@. c #00E000",
"#. c #00D400",
"$. c #04C800",
"%. c #04BC00",
"&. c #04B000",
"*. c #04A400",
"=. c #049800",
"-. c #048800",
";. c #047C00",
":. c #047000",
">. c #046400",
",. c #045800",
"<. c #044C00",
"1. c #044000",
"2. c #D8FCFC",
"3. c #B8FCFC",
"4. c #9CFCFC",
"5. c #7CFCF8",
"6. c #5CFCFC",
"7. c #40FCFC",
"8. c #20FCFC",
"9. c #00FCFC",
"0. c #00E4E4",
"q. c #00CCCC",
"w. c #00B4B4",
"e. c #009C9C",
"r. c #008484",
"t. c #007070",
"y. c #005858",
"u. c #004040",
"i. c #5CBCFC",
"p. c #40B0FC",
"a. c #20A8FC",
"s. c #009CFC",
"d. c #008CE4",
"f. c #007CCC",
"g. c #006CB4",
"h. c #005C9C",
"j. c #D8D8FC",
"k. c #B8BCFC",
"l. c #9C9CFC",
"z. c #7C80FC",
"x. c #5C60FC",
"c. c #4040FC",
"v. c #2024FC",
"b. c #0004FC",
"n. c #0000FC",
"m. c #0000EC",
"M. c #0000E0",
"N. c #0000D4",
"B. c #0000C8",
"V. c #0000BC",
"C. c #0000B0",
"Z. c #0000A4",
"A. c #000098",
"S. c #000088",
"D. c #00007C",
"F. c #000070",
"G. c #000064",
"H. c #000058",
"J. c #00004C",
"K. c #000040",
"L. c #282828",
"P. c #FCE034",
"I. c #FCD424",
"U. c #FCCC18",
"Y. c #FCC008",
"T. c #FCB400",
"R. c #B420FC",
"E. c #A800FC",
"W. c #9800E4",
"Q. c #8000CC",
"!. c #7400B4",
"~. c #60009C",
"^. c #500084",
"/. c #440070",
"(. c #340058",
"). c #280040",
"_. c #FCD8FC",
"`. c #FCB8FC",
"'. c #FC9CFC",
"]. c #FC7CFC",
"[. c #FC5CFC",
"{. c #FC40FC",
"}. c #FC20FC",
"|. c #FC00FC",
" X c #E000E4",
".X c #C800CC",
"XX c #B400B4",
"oX c #9C009C",
"OX c #840084",
"+X c #6C0070",
"@X c #580058",
"#X c #400040",
"$X c #FCE8DC",
"%X c #FCE0D0",
"&X c #FCD8C4",
"*X c #FCD4BC",
"=X c #FCCCB0",
"-X c #FCC4A4",
";X c #FCBC9C",
":X c #FCB890",
">X c #FCB080",
",X c #FCA470",
"<X c #FC9C60",
"1X c #F0945C",
"2X c #E88C58",
"3X c #DC8854",
"4X c #D08050",
"5X c #C87C4C",
"6X c #BC7848",
"7X c #B47044",
"8X c #A86840",
"9X c #A0643C",
"0X c #9C6038",
"qX c #905C34",
"wX c #885830",
"eX c #80502C",
"rX c #744C28",
"tX c #6C4824",
"yX c #5C4020",
"uX c #543C1C",
"iX c #483818",
"pX c #403018",
"aX c #382C14",
"sX c #28200C",
"dX c #600064",
"fX c #006464",
"gX c #006060",
"hX c #00001C",
"jX c #00002C",
"kX c #302410",
"lX c #480048",
"zX c #500050",
"xX c #000034",
"cX c gray11",
"vX c #4C4C4C",
"bX c gray36",
"nX c gray25",
"mX c gray19",
"MX c #343434",
"NX c #D8F4F4",
"BX c #B8E8E8",
"VX c #9CDCDC",
"CX c #74C8C8",
"ZX c #48C0C0",
"AX c #20B4B4",
"SX c #20B0B0",
"DX c #00A4A4",
"FX c #009898",
"GX c #008C8C",
"HX c #008484",
"JX c #007C7C",
"KX c #007878",
"LX c #007474",
"PX c #007070",
"IX c #006C6C",
"UX c #980088",
/* pixels */
"mXe e mXq q q q q mXmXmXmXmXmXmXmXe e e e e e e e e e e e e e e e e e e e e e e e e e e e e e e e e e e e e e e e e e e e e e e ",
"L.mXq nXnXnXnXnXnXnXnXnXnXnXq q q q q q q q q q q q q q q mXmXmXe cXcXe mXmXmXmXmXmXmXmXmXq mXmXe e e e mXmXmXmXmXmXmXq q mXmXL.",
"mXmXnX$ $ $ $ $ $ $ $ $ $ nXnXnXnXnXnXnXnXnXnXnXnXnXnXnXnXnXnXq mXcXmXq nXnXnXnXnXnXnXnXnXnXnXq q e L.e cXmXmXq q q q q nXq mXe ",
"mX$ bXbXbX$ bXbXbXbX$ $ $ $ $ nXnXnX$ $ $ $ nXnXnX$ $ $ nXnXnXq mXcXq nXbX$ $ nX$ $ $ $ $ $ $ $ $ mXmXcXcXnXnX$ $ nXnXnXnXnXq mX",
"mXbXbXbX$ $ $ $ nXnXnXnX$ $ $ $ $ $ $ $ $ $ $ nXnX$ $ $ nXnXnXq mXL.nX7 6 7 bX$ $ $ $ $ $ bXbXbX7 q mXcXL.bXbX7 7 $ $ $ $ nXq mX",
"mX$ $ $ nXnXnXnXnXnX$ $ $ $ $ $ $ $ $ $ nXnXnXnX$ $ $ $ nXnXnXq L.q $ 7 6 6 bX$ $ $ $ $ bXbX6 7 7 nXmXmXmX7 6 7 7 7 7 7 $ $ nXmX",
"q nX$ $ nXnXnXnXnX$ $ $ $ $ $ $ $ $ $ nXnXnXnXnXnX$ $ $ nXnX$ nXL.q bX$ bXbX$ $ nXnXnX$ $ $ bXbX7 nXmXmXe nX7 7 bX6 7 6 bX$ nXmX",
"q nX$ $ nXnXnXnXnX$ $ $ $ $ $ $ $ $ $ nXnXnXnXnXnXnXnXnXnXnX$ $ L.mXbX$ $ $ $ nXnXnXnXnXnXnX$ $ $ bXmXmXe q $ $ $ bXbXbX$ $ nXmX",
"q nX$ $ nXnXnXnXnXnXnX$ $ $ $ nX$ $ $ nXnXnXnXnXnXnXnXnXnXnX$ nXmXmXbX$ nXnXnXnXnXnXnXnXnXnX$ $ $ bXq mXe nXnXnXnX$ $ $ nXnXnXmX",
"q nX$ $ $ $ $ $ $ nXnXnXnXnXnXnXnX$ nXnXnX$ $ $ nXnXnXnXnX$ $ nXL.mXbXnXnXnXnXnXnXnXnX$ $ $ $ $ $ bXq e q $ nXnXnXnXnXnXnXnXnXmX",
"mXq nX$ $ $ $ $ $ nXnXnXnXnXnXnXnXnXnXnX$ $ $ $ $ $ $ $ $ $ $ nXmXe bXnXnXnXnXnXnXnX$ $ $ $ $ $ $ $ q mXq bXnXnXnXnXnXnXnXnXnXmX",
"mXq nXnX$ $ $ $ nXnXnXnXnXnXnXnXnXnXnXnX$ $ $ $ $ $ $ $ $ $ bXnXq e $ nXnXnXnXnXnXnXnX$ $ $ $ $ $ $ L.L.q bXnXnXnXnX$ $ nXnXnXmX",
"L.mXq nXnXnXnXnXnXnXnXnXnXnXnXnXnXnXnXnXnXnXnXnXnXnXnX$ nXnX$ q mXe q nXnXnXnXnXnXnXnXnX$ $ $ $ nXnXL.L.mXbXnXnXnXnX$ $ $ nXnXq ",
"e e e e mXq q nXnXnXnXnXq mXmXcXmXq q q q q q q nXnXnXnXnXnXq mXcXcXmXq nXnXnXnXnXnXnXnXnXnXnXnXnXq L.e e 7 nXnXnXnX$ $ $ $ nXq ",
"cXcXe e mXq nX$ $ $ $ nXq mXmXcXe e mXmXmXmXmXq q q nXq q L.L.e   cXmXmXmXmXmXmXmXmXmXmXmXmXq mXmXe cXe e 7 nXnXnXnXnXnX$ nXnXq ",
"cXe e q nXnXbX7 7 7 7 7 $ nXq mXe e mXq mXnXnXnXnXnXnXq q q q L.e cXcXcXe mXe q L.e mXmXmXL.mXmXcXcXcXe mXbX$ nXnXnXnXnXnXnXnXq ",
"cXmXq $ nX$ bXbXbXbXbX6 bXnXnXq e mXq nXnXbXbX$ nXnXnXnXnXnXnXnXnXnXmXL.mXq nXnXnXq q q nXnXq nXnXq mXmXq bX$ nXnXnXnXnXnXnXnXq ",
"cXmXnXbXnXnXnXnX$ $ $ 7 $ nXnXq cXq nX$ bX6 6 bXnXnXnXnXnXnXnXnXnXnXnXnXnXnXnX$ nXnXnXnX$ $ $ $ $ nXq mXq bX$ $ nXnXnXnXnXnXnXq ",
"cXmXq nXnXnXnXnXnXnXnXnXnXnXq e cXmX$ 7 7 7 7 $ nXnXnXnXnXnXnXnXnXnXnX$ bXbXbXbXbXbXbXbX7 bXbXbX$ nXnXL.q bX$ $ $ nXnXnXnXnXnXq ",
"cXcXcXmXL.nXq q nXnXnXq q q mXe e e 6 6 7 7 $ nXnXnXnXnXnXnXnXnX$ $ $ bXbXbXbXbXbXbXbX7 7 7 bXbX$ nX$ mXnX$ $ $ $ nXnXnXnXnXnXq ",
"e cXcXcXq nXnXnXnXnXnXq nXnXe cXcXmX6 6 $ $ $ nXnXnXnXnXnXnXnXnX$ $ $ $ $ $ $ $ $ $ $ bXbX$ $ $ $ nXnXmXnX$ $ $ nXnXnXnXnXnXnXmX",
"cXe mXmXnXbXbXbXbXbXbXnX$ $ q e cXq bX7 $ $ nXnXnXnXnXnXnXnXnXnXnXnXnX$ $ $ $ $ $ $ $ $ $ $ nXnXnXnXnXnXnX$ $ $ $ nXnXnXnXnXq mX",
"cXq q nXbX6 7 6 bXbX7 $ bX7 nXmXmXq bX$ $ nXnX$ $ nXnXnXnXnXnXnXnXnXnXnXnXnXnXnXnXnXnXnXnXnXnXnXnXnXnXnXnX$ $ $ $ $ nXnXnXnXq mX",
"cXq nX$ $ bXbXbX$ $ $ $ bXbXnXmXmXq bX$ $ $ $ $ $ $ nXnXnXnXnXnXnXnXnXnXnXnXnXnXnXnXnXnXnXnXnXnXnX$ nXmXnX$ $ $ $ $ nXnXnXnXq mX",
"e q nXnXnXnXnXnXnXnXnX$ $ bXnXq mXmXnX$ $ $ $ $ $ $ nXnXnXnXnXnXnXnXnXnXnXnXnXnXnXnXnXnXnXnXnXnXnX$ nXmXnX$ $ $ $ $ nXnXnXnXq mX",
"e q q nXnXnXnXnXnXnXnXnXnX$ nXmXmXmXq bX$ $ $ $ $ nXnXnXnXnX$ $ nXnXnXnXnXnXnXnXnX$ $ $ $ $ $ $ $ $ nXmXnX$ $ $ $ $ nXnXnXnXq mX",
"mXq q nXnXnXnXnXnXnXnXnXnXnXnXq mXmXq bX$ $ $ $ nXnXnXnXnXnXnXnXnXnXnXnXnXnXnXnXnXnXnX$ $ $ $ $ $ $ nXmXq bX$ $ $ $ nXnXnXnXnXq ",
"mXq nXnXnXnXnXnXnXnXnXnXnXnXnXq mXmXq bX$ $ nXnXnXnXnXnXnXnXnXnXnXnXnXnXnXnXnXnXnXnXnX$ nXnX7 7 7 $ nXq mXbX$ $ $ $ nXnXnXnXnXq ",
"e q nXnXnXnXnXnXnXnXnXnXnXnXnXq mXL.q bX$ $ $ nXnXnXnXnXnXnXq q nXnXnXnXnXnXnXnXnXnXnX$ $ $ $ 7 7 nXnXq q $ $ $ nXnXnXnXnXnXq mX",
"e q nXnXnXnXnXnXnXnXnXnXnXnXnXq mXcXq $ nX$ $ $ nXnXnXnXnXq q q q nXnXnXnXnXnXnXnXnXnXnXnX$ nXnX$ nXq mXmXq nXnXnXnXnXnXnXnXq mX",
"e mXq nXnXq q q nXnXnXnXnXq q q mXe q q q q q nXnXq q q q mXmXmXmXq nXq q q q q q q q q q nXnXnXnXq q mXmXmXq nXnXnXnXnXnXq mXmX",
"mXmXmXq q mXmXmXq q q q q mXmXmXmXmXmXmXmXmXmXq q mXmXmXmXmXmXmXmXmXq mXmXmXmXmXmXe mXmXmXq q q q mXmXmXmXmXmXq q q q q q mXL.L.",
"e e e e e e e e e e e e e e e e e e e e e e e e e e e e e e e e e e e e e e e e e e e e e e e mXmXmXmXmXmXmXmXq q q q q mXe e mX",
"L.mXmXq q mXmXmXmXmXmXmXe e e e mXmXq mXmXmXmXmXmXmXmXmXe cXcXe mXmXmXq q q q q q q q q q q q q q q nXnXnXnXnXnXnXnXnXnXnXq mXL.",
"e mXq nXq q q q q mXmXcXe L.e q q nXnXnXnXnXnXnXnXnXnXnXq mXcXmXq nXnXnXnXnXnXnXnXnXnXnXnXnXnXnXnXnXnX$ $ $ $ $ $ $ $ $ $ nXmXmX",
"mXq nXnXnXnXnX$ $ nXnXcXcXmXmX$ $ $ $ $ $ $ $ $ nX$ $ bXnXq cXmXq nXnXnX$ $ $ nXnXnX$ $ $ $ nXnXnX$ $ $ $ $ bXbXbXbX$ bXbXbX$ mX",
"mXq nX$ $ $ $ 7 7 bXbXL.cXmXq 7 bXbXbX$ $ $ $ $ $ bX7 6 7 nXL.mXq nXnXnX$ $ $ nXnX$ $ $ $ $ $ $ $ $ $ $ nXnXnXnX$ $ $ $ bXbXbXmX",
"mXnX$ $ 7 7 7 7 7 6 7 mXmXmXnX7 7 6 bXbX$ $ $ $ $ bX6 6 7 $ q L.q nXnXnX$ $ $ $ nXnXnXnX$ $ $ $ $ $ $ $ $ $ nXnXnXnXnXnX$ $ $ mX",
"mXnX$ bX6 7 6 bX7 7 nXe mXmXnX7 bXbX$ $ $ nXnXnX$ $ bXbX$ bXq L.nX$ nXnX$ $ $ nXnXnXnXnXnX$ $ $ $ $ $ $ $ $ $ nXnXnXnXnX$ $ nXq ",
"mXnX$ $ bXbXbX$ $ $ q e mXmXbX$ $ $ nXnXnXnXnXnXnX$ $ $ $ bXmXL.$ $ nXnXnXnXnXnXnXnXnXnXnX$ $ $ $ $ $ $ $ $ $ nXnXnXnXnX$ $ nXq ",
"mXnXnXnX$ $ $ nXnXnXnXe mXq bX$ $ $ nXnXnXnXnXnXnXnXnXnX$ bXmXmXnX$ nXnXnXnXnXnXnXnXnXnXnX$ $ $ nX$ $ $ $ nXnXnXnXnXnXnX$ $ nXq ",
"mXnXnXnXnXnXnXnXnXnX$ q e q bX$ $ $ $ $ $ nXnXnXnXnXnXnXnXbXmXL.nX$ $ nXnXnXnXnX$ $ $ nXnXnX$ nXnXnXnXnXnXnXnX$ $ $ $ $ $ $ nXq ",
"mXnXnXnXnXnXnXnXnXnXbXq mXq $ $ $ $ $ $ $ $ nXnXnXnXnXnXnXbXe mXnX$ $ $ $ $ $ $ $ $ $ $ nXnXnXnXnXnXnXnXnXnXnX$ $ $ $ $ $ nXq mX",
"mXnXnXnX$ $ nXnXnXnXbXq L.L.$ $ $ $ $ $ $ nXnXnXnXnXnXnXnX$ e q nXbX$ $ $ $ $ $ $ $ $ $ nXnXnXnXnXnXnXnXnXnXnXnX$ $ $ $ nXnXq mX",
"q nXnX$ $ $ nXnXnXnXbXmXL.L.nXnX$ $ $ $ nXnXnXnXnXnXnXnXnXq e mXq $ nXnX$ nXnXnXnXnXnXnXnXnXnXnXnXnXnXnXnXnXnXnXnXnXnXnXnXq mXL.",
"q nX$ $ $ $ nXnXnXnX7 e e L.q nXnXnXnXnXnXnXnXnXnXnXnXnXq mXcXcXmXq nXnXnXnXnXnXq q q q q q q mXcXmXmXq nXnXnXnXnXq q mXe e e e ",
"q nXnX$ nXnXnXnXnXnX7 e e cXe mXmXq mXmXmXmXmXmXmXmXmXmXmXmXcX  e L.L.q q nXq q q mXmXmXmXmXe e cXmXmXq nX$ $ $ $ nXq mXe e cXcX",
"q nXnXnXnXnXnXnXnX$ bXmXe cXcXcXmXmXL.mXmXmXe L.q e mXe cXcXcXe L.q q q q nXnXnXnXnXnXmXq mXe e mXq nX$ 7 7 7 7 7 bXnXnXq e e cX",
"q nXnXnXnXnXnXnXnX$ bXq mXmXq nXnXq nXnXq q q nXnXnXq mXL.mXnXnXnXnXnXnXnXnXnXnX$ bXbXnXnXq mXe q nXnXbX6 bXbXbXbXbX$ nX$ q mXcX",
"q nXnXnXnXnXnXnX$ $ bXq mXq nX$ $ $ $ $ nXnXnXnX$ nXnXnXnXnXnXnXnXnXnXnXnXnXnXnXbX6 6 bX$ nXq cXq nXnX$ 7 $ $ $ nXnXnXnXbXnXmXcX",
"q nXnXnXnXnXnX$ $ $ bXq L.nXnX$ bXbXbX7 bXbXbXbXbXbXbXbX$ nXnXnXnXnXnXnXnXnXnXnX$ 7 7 7 7 $ mXcXe q nXnXnXnXnXnXnXnXnXnXnXq mXcX",
"q nXnXnXnXnXnX$ $ $ $ nXmX$ nX$ bXbX7 7 7 bXbXbXbXbXbXbXbX$ $ $ nXnXnXnXnXnXnXnXnX$ 7 7 6 6 e e e mXq q q nXnXnXq q nXL.mXcXcXcX",
"mXnXnXnXnXnXnXnX$ $ $ nXmXnXnX$ $ $ $ bXbX$ $ $ $ $ $ $ $ $ $ $ nXnXnXnXnXnXnXnXnX$ $ $ 6 6 mXcXcXe nXnXq nXnXnXnXnXnXq cXcXcXe ",
"mXq nXnXnXnXnX$ $ $ $ nXnXnXnXnXnXnX$ $ $ $ $ $ $ $ $ $ $ nXnXnXnXnXnXnXnXnXnXnXnXnX$ $ 7 bXq cXe q $ $ nXbXbXbXbXbXbXnXmXmXe cX",
"mXq nXnXnXnX$ $ $ $ $ nXnXnXnXnXnXnXnXnXnXnXnXnXnXnXnXnXnXnXnXnXnXnXnXnXnXnXnX$ $ nXnX$ $ bXq mXmXnX7 bX$ 7 bXbX6 7 6 bXnXq q cX",
"mXq nXnXnXnX$ $ $ $ $ nXmXnX$ nXnXnXnXnXnXnXnXnXnXnXnXnXnXnXnXnXnXnXnXnXnXnX$ $ $ $ $ $ $ bXq mXmXnXbXbX$ $ $ $ bXbXbX$ $ nXq cX",
"mXq nXnXnXnX$ $ $ $ $ nXmXnX$ nXnXnXnXnXnXnXnXnXnXnXnXnXnXnXnXnXnXnXnXnXnXnX$ $ $ $ $ $ $ nXmXmXq nXbX$ $ nXnXnXnXnXnXnXnXnXq e ",
"mXq nXnXnXnX$ $ $ $ $ nXmXnX$ $ $ $ $ $ $ $ $ nXnXnXnXnXnXnXnXnX$ $ nXnXnXnXnX$ $ $ $ $ bXq mXmXmXnX$ nXnXnXnXnXnXnXnXnXnXq q e ",
"q nXnXnXnXnX$ $ $ $ bXq mXnX$ $ $ $ $ $ $ nXnXnXnXnXnXnXnXnXnXnXnXnXnXnXnXnXnXnX$ $ $ $ bXq mXmXq nXnXnXnXnXnXnXnXnXnXnXnXq q mX",
"q nXnXnXnXnX$ $ $ $ bXmXq nX$ 7 7 7 nXnX$ nXnXnXnXnXnXnXnXnXnXnXnXnXnXnXnXnXnXnXnXnX$ $ bXq mXmXq nXnXnXnXnXnXnXnXnXnXnXnXnXq mX",
"mXq nXnXnXnXnXnX$ $ $ q q nXnX7 7 $ $ $ $ nXnXnXnXnXnXnXnXnXnXnXq q nXnXnXnXnXnXnX$ $ $ bXq L.mXq nXnXnXnXnXnXnXnXnXnXnXnXnXq e ",
"mXq nXnXnXnXnXnXnXnXq mXmXq nX$ nXnX$ nXnXnXnXnXnXnXnXnXnXnXnXq q q q nXnXnXnXnX$ $ $ nX$ q cXmXq nXnXnXnXnXnXnXnXnXnXnXnXnXq e ",
"mXmXq nXnXnXnXnXnXq mXmXmXq q nXnXnXnXq q q q q q q q q q nXq mXmXmXmXq q q q nXnXq q q q q e mXq q q nXnXnXnXnXq q q nXnXq mXe ",
"L.L.mXq q q q q q mXmXmXmXmXmXq q q q mXmXmXe mXmXmXmXmXmXq mXmXmXmXmXmXmXmXmXq q mXmXmXmXmXmXmXmXmXmXq q q q q mXmXmXq q mXmXmX"
};
